<svg width="400" height="400" viewBox="0 0 400 400" fill="none" xmlns="http://www.w3.org/2000/svg">
<path fill-rule="evenodd" clip-rule="evenodd" d="M71.429 83.028C69.966 84.491 69.94 104.269 71.4 105.371C72.102 105.901 77.751 105.976 117.638 105.987L163.076 106L163.838 106.842C164.88 107.993 165.029 128.558 164 129.208C163.663 129.422 158.882 129.59 153.074 129.594C139.724 129.602 141.2 128.236 141.2 140.588C141.2 146.221 141.026 151.205 140.81 151.774L140.42 152.8H129.992H119.564L118.582 153.782L117.6 154.764V165.339C117.6 174.613 117.522 175.944 116.967 176.157C116.619 176.291 111.485 176.4 105.557 176.4H94.78L94.39 177.426C94.173 177.996 94 183.026 94 188.746C94 196.219 93.868 199.172 93.52 199.52C93.172 199.868 90.223 200 82.764 200C73.244 200 72.419 200.056 71.544 200.764L70.6 201.529L70.49 223.298C70.381 244.881 70.387 245.076 71.219 246.133L72.058 247.2H129.619H187.179L187.79 246.02C188.791 244.084 188.686 225.182 187.669 224.262C186.997 223.654 183.232 223.6 141.769 223.595C95.379 223.589 95.043 223.581 94.585 222.461C94.32 221.811 94.32 200.746 94.586 200.481C94.661 200.406 99.194 200.344 104.661 200.343C119.174 200.341 118 201.496 118 187.217C118 178.165 118.078 176.856 118.633 176.643C118.981 176.509 123.886 176.394 129.533 176.387C137.436 176.377 139.961 176.252 140.5 175.843C141.135 175.361 141.2 174.353 141.2 165.03C141.2 158.707 141.359 154.449 141.614 153.974C142.007 153.239 142.557 153.2 152.544 153.2C166.193 153.2 164.798 154.568 164.806 141.174C164.81 135.472 164.979 130.736 165.191 130.4C165.507 129.899 167.368 129.767 176.474 129.6L187.377 129.4L187.888 128.4C188.66 126.889 188.436 84.007 187.651 83.061C186.829 82.071 72.419 82.038 71.429 83.028ZM218.349 83.061C217.563 84.008 217.334 244.459 218.116 246L218.623 247L229.09 247.107C240.682 247.225 241.196 247.111 241.203 244.425C241.204 243.861 241.249 223.484 241.303 199.142C241.397 156.194 241.423 154.859 242.165 154.039C242.928 153.195 242.973 153.194 265.365 153.297L287.8 153.4L287.899 164.2C288.025 177.879 286.556 176.4 300.012 176.4C305.689 176.4 310.619 176.509 310.967 176.643C311.537 176.862 311.6 180.231 311.6 210.656C311.6 239.24 311.689 244.639 312.18 245.813L312.759 247.2H323.198H333.636L334.618 246.218L335.6 245.236V211.695C335.6 183.373 335.512 178.032 335.033 177.376C334.501 176.649 333.765 176.587 323.333 176.4L312.2 176.2L312 165.067C311.752 151.255 313.288 152.8 299.804 152.8C292.214 152.8 289.229 152.669 288.88 152.32C288.53 151.97 288.4 148.89 288.4 140.967V130.093L289.3 129.852C289.795 129.719 294.929 129.608 300.71 129.605L311.22 129.6L311.61 128.574C311.828 128.002 312 122.891 312 117.017C312 107.783 312.078 106.456 312.633 106.243C312.981 106.109 317.886 105.994 323.533 105.987C332.055 105.977 333.936 105.872 334.6 105.371C335.868 104.413 336.065 84.465 334.819 83.219C333.675 82.075 313.287 81.932 312.349 83.061C311.92 83.576 311.773 86.111 311.677 94.615L311.554 105.509L310.327 105.755C309.652 105.89 304.747 106 299.426 106C286.837 106 288.23 104.521 288.076 118.059C287.986 125.944 287.819 129.067 287.476 129.285C286.911 129.644 244.614 129.7 243.284 129.344C241.256 128.8 241.234 128.539 241.236 105.405C241.237 85.72 241.18 83.841 240.557 83.152C239.575 82.068 219.243 81.985 218.349 83.061ZM71.76 276.706C70.47 277.567 70.4 278.779 70.4 300.12C70.4 326.022 69.763 323.6 76.58 323.6C82.51 323.6 82.15 324.147 82.4 314.759C82.544 309.35 82.746 307.092 83.119 306.719C83.877 305.963 108.961 305.769 110.4 306.508L111.4 307.022L111.6 314.411C111.863 324.112 111.534 323.602 117.514 323.594C124.594 323.585 124 325.747 124 300C124 274.243 124.6 276.415 117.48 276.406L112.759 276.4L112.18 277.787C111.751 278.814 111.6 280.94 111.6 285.964C111.6 294.875 113.191 294 96.987 294C80.926 294 82.656 295.065 82.4 285.017C82.237 278.631 82.088 277.099 81.6 276.791C80.898 276.348 72.406 276.274 71.76 276.706ZM153.829 277.028C152.963 277.894 152.813 278.768 152.699 283.6L152.6 287.8L147.8 288C140.684 288.296 141.435 286.354 141.2 305.072C141.026 318.958 141.08 321.154 141.622 322.2L142.243 323.4L146.883 323.512C152.998 323.66 153.2 323.461 153.2 317.29C153.2 311.561 151.904 312.028 167.851 312.013C183.512 311.998 182.168 311.499 182.27 317.361C182.309 319.583 182.354 321.612 182.37 321.871C182.459 323.275 183.6 323.6 188.449 323.6H193.241L193.838 322.171C194.811 319.842 194.495 289.923 193.487 288.914C192.902 288.328 191.858 288.164 187.687 288L182.6 287.8L182.4 282.485C182.245 278.354 182.066 277.085 181.6 276.791C180.467 276.076 154.56 276.297 153.829 277.028ZM218.4 277C218.126 277.33 217.81 278.417 217.697 279.415C217.469 281.436 217.017 281.828 214.436 282.241C212.011 282.628 212.041 282.411 211.978 300.151C211.913 318.089 211.809 317.366 214.523 317.815C217.083 318.239 217.471 318.578 217.697 320.585C218.063 323.835 216.232 323.6 241.2 323.6C267.374 323.6 264.542 324.324 264.732 317.585C264.919 310.971 267.129 311.6 243.698 311.6C225.671 311.6 224.356 311.553 224.087 310.9C223.514 309.504 223.75 289.782 224.349 289.061C224.846 288.463 226.726 288.4 244.049 288.4C267.11 288.4 264.936 289.049 264.734 282.227C264.643 279.164 264.424 277.509 264.051 277.06C263.253 276.1 219.195 276.042 218.4 277ZM283.531 276.67C282.121 277.043 282 278.89 282 300C282 325.801 281.353 323.585 288.886 323.595C294.402 323.602 294.139 324.039 294.4 314.411L294.6 307.022L295.6 306.517C296.647 305.988 315.668 305.744 316.967 306.243C317.514 306.453 317.6 307.53 317.6 314.154C317.6 324.093 317.296 323.6 323.423 323.6C329.882 323.6 329.6 324.008 329.6 314.649C329.6 305.655 330.053 306.27 323.241 306L318.2 305.8V300.2V294.6L323.136 294.4C329.96 294.124 329.686 294.531 329.524 284.893C329.372 275.895 329.738 276.4 323.373 276.4C317.47 276.4 317.848 275.788 317.6 285.76L317.4 293.8L306.707 293.907C293.202 294.041 294.4 294.832 294.4 285.787C294.4 280.917 294.247 278.809 293.82 277.787L293.241 276.4L288.72 276.446C286.234 276.472 283.899 276.572 283.531 276.67ZM181.913 289.1C182.455 290.422 182.246 298.622 181.651 299.339C180.721 300.459 155.131 300.331 154 299.2C153.023 298.223 152.762 289.043 153.7 288.665C155.316 288.013 181.633 288.419 181.913 289.1Z" fill="#000000"/>
</svg>
